<?xml version="1.0" encoding="UTF-8"?>
<!-- ♡ uwu Plasma style. Generated by tools/plasma_theme.py; colours follow the colour scheme. -->
<svg xmlns="http://www.w3.org/2000/svg" xmlns:xlink="http://www.w3.org/1999/xlink" width="108" height="116" viewBox="0 0 108 116">
  <defs>
    <style type="text/css" id="current-color-scheme">
      .ColorScheme-Text { color:#ffeaf6; }
      .ColorScheme-Background { color:#241530; }
      .ColorScheme-Highlight { color:#ff8fc8; }
      .ColorScheme-ViewBackground { color:#1b0f22; }
      .ColorScheme-ButtonBackground { color:#3a2244; }
      .ColorScheme-ButtonHover { color:#c7a2ff; }
      .ColorScheme-ButtonFocus { color:#ff8fc8; }
      .ColorScheme-NeutralText { color:#ffd27a; }
      .ColorScheme-PositiveText { color:#8ff5cf; }
      .ColorScheme-NegativeText { color:#ff6b8f; }
      .ColorScheme-HighlightedText { color:#2a0c22; }
    </style>
  </defs>
<g id="topleft"><rect x="0" y="0" width="16" height="16" fill="#000" opacity="0"/><path class="ColorScheme-Background" d="M16,0 L14,0 A14,14 0 0 0 0,14 L0,16 L16,16 Z" fill="currentColor" opacity="0.92"/><path class="ColorScheme-Highlight" d="M16,0 L14,0 A14,14 0 0 0 0,14 L0,16 L1.5,16 L1.5,14 A12.5,12.5 0 0 1 14,1.5 L16,1.5 Z" fill="currentColor" opacity="0.45"/><path d="M16,1.9 L14,1.9 A12.1,12.1 0 0 0 1.9,14 L1.9,16 L2.9,16 L2.9,14 A11.1,11.1 0 0 1 14,2.9 L16,2.9 Z" fill="#fff" opacity="0.07"/></g>
<g id="topright"><rect x="32" y="0" width="16" height="16" fill="#000" opacity="0"/><path class="ColorScheme-Background" d="M32,0 L34,0 A14,14 0 0 1 48,14 L48,16 L32,16 Z" fill="currentColor" opacity="0.92"/><path class="ColorScheme-Highlight" d="M32,0 L34,0 A14,14 0 0 1 48,14 L48,16 L46.5,16 L46.5,14 A12.5,12.5 0 0 0 34,1.5 L32,1.5 Z" fill="currentColor" opacity="0.45"/><path d="M32,1.9 L34,1.9 A12.1,12.1 0 0 1 46.1,14 L46.1,16 L45.1,16 L45.1,14 A11.1,11.1 0 0 0 34,2.9 L32,2.9 Z" fill="#fff" opacity="0.07"/></g>
<g id="bottomleft"><rect x="0" y="32" width="16" height="16" fill="#000" opacity="0"/><path class="ColorScheme-Background" d="M16,48 L14,48 A14,14 0 0 1 0,34 L0,32 L16,32 Z" fill="currentColor" opacity="0.92"/><path class="ColorScheme-Highlight" d="M16,48 L14,48 A14,14 0 0 1 0,34 L0,32 L1.5,32 L1.5,34 A12.5,12.5 0 0 0 14,46.5 L16,46.5 Z" fill="currentColor" opacity="0.45"/></g>
<g id="bottomright"><rect x="32" y="32" width="16" height="16" fill="#000" opacity="0"/><path class="ColorScheme-Background" d="M32,48 L34,48 A14,14 0 0 0 48,34 L48,32 L32,32 Z" fill="currentColor" opacity="0.92"/><path class="ColorScheme-Highlight" d="M32,48 L34,48 A14,14 0 0 0 48,34 L48,32 L46.5,32 L46.5,34 A12.5,12.5 0 0 1 34,46.5 L32,46.5 Z" fill="currentColor" opacity="0.45"/></g>
<g id="top"><rect x="16" y="0" width="16" height="16" fill="#000" opacity="0"/><path class="ColorScheme-Background" d="M16,0 H32 V16 H16 Z" fill="currentColor" opacity="0.92"/><path class="ColorScheme-Highlight" d="M16,0 H32 V1.5 H16 Z" fill="currentColor" opacity="0.45"/><path d="M16,1.9 H32 V2.9 H16 Z" fill="#fff" opacity="0.07"/></g>
<g id="bottom"><rect x="16" y="32" width="16" height="16" fill="#000" opacity="0"/><path class="ColorScheme-Background" d="M16,32 H32 V48 H16 Z" fill="currentColor" opacity="0.92"/><path class="ColorScheme-Highlight" d="M16,46.5 H32 V48 H16 Z" fill="currentColor" opacity="0.45"/></g>
<g id="left"><rect x="0" y="16" width="16" height="16" fill="#000" opacity="0"/><path class="ColorScheme-Background" d="M0,16 H16 V32 H0 Z" fill="currentColor" opacity="0.92"/><path class="ColorScheme-Highlight" d="M0,16 H1.5 V32 H0 Z" fill="currentColor" opacity="0.45"/></g>
<g id="right"><rect x="32" y="16" width="16" height="16" fill="#000" opacity="0"/><path class="ColorScheme-Background" d="M32,16 H48 V32 H32 Z" fill="currentColor" opacity="0.92"/><path class="ColorScheme-Highlight" d="M46.5,16 H48 V32 H46.5 Z" fill="currentColor" opacity="0.45"/></g>
<g id="center"><rect x="16" y="16" width="16" height="16" fill="#000" opacity="0"/><path class="ColorScheme-Background" d="M16,16 H32 V32 H16 Z" fill="currentColor" opacity="0.92"/></g>
<rect id="hint-top-margin" x="56" y="0" width="4" height="6" fill="#000" opacity="0"/>
<rect id="hint-bottom-margin" x="62" y="0" width="4" height="6" fill="#000" opacity="0"/>
<rect id="hint-left-margin" x="56" y="30" width="6" height="4" fill="#000" opacity="0"/>
<rect id="hint-right-margin" x="56" y="36" width="6" height="4" fill="#000" opacity="0"/>
<rect id="hint-top-inset" x="56" y="50" width="4" height="0" fill="#000" opacity="0"/>
<rect id="hint-bottom-inset" x="62" y="50" width="4" height="0" fill="#000" opacity="0"/>
<rect id="hint-left-inset" x="56" y="80" width="0" height="4" fill="#000" opacity="0"/>
<rect id="hint-right-inset" x="56" y="86" width="0" height="4" fill="#000" opacity="0"/>
<defs><radialGradient id="shadowg1x0" gradientUnits="userSpaceOnUse" cx="16" cy="74" r="16"><stop offset="0" stop-color="#2a0a24" stop-opacity="0.357"/><stop offset=".45" stop-color="#2a0a24" stop-opacity="0.161"/><stop offset="1" stop-color="#2a0a24" stop-opacity="0"/></radialGradient><radialGradient id="shadowg2x0" gradientUnits="userSpaceOnUse" cx="32" cy="74" r="16"><stop offset="0" stop-color="#2a0a24" stop-opacity="0.357"/><stop offset=".45" stop-color="#2a0a24" stop-opacity="0.161"/><stop offset="1" stop-color="#2a0a24" stop-opacity="0"/></radialGradient><radialGradient id="shadowg3x0" gradientUnits="userSpaceOnUse" cx="16" cy="90" r="16"><stop offset="0" stop-color="#2a0a24" stop-opacity="0.473"/><stop offset=".45" stop-color="#2a0a24" stop-opacity="0.213"/><stop offset="1" stop-color="#2a0a24" stop-opacity="0"/></radialGradient><radialGradient id="shadowg4x0" gradientUnits="userSpaceOnUse" cx="32" cy="90" r="16"><stop offset="0" stop-color="#2a0a24" stop-opacity="0.473"/><stop offset=".45" stop-color="#2a0a24" stop-opacity="0.213"/><stop offset="1" stop-color="#2a0a24" stop-opacity="0"/></radialGradient><linearGradient id="shadowg5x0" gradientUnits="userSpaceOnUse" x1="0" y1="74" x2="0" y2="58"><stop offset="0" stop-color="#2a0a24" stop-opacity="0.294"/><stop offset=".45" stop-color="#2a0a24" stop-opacity="0.132"/><stop offset="1" stop-color="#2a0a24" stop-opacity="0"/></linearGradient><linearGradient id="shadowg6x0" gradientUnits="userSpaceOnUse" x1="0" y1="90" x2="0" y2="106"><stop offset="0" stop-color="#2a0a24" stop-opacity="0.525"/><stop offset=".45" stop-color="#2a0a24" stop-opacity="0.236"/><stop offset="1" stop-color="#2a0a24" stop-opacity="0"/></linearGradient><linearGradient id="shadowg7x0" gradientUnits="userSpaceOnUse" x1="16" y1="0" x2="0" y2="0"><stop offset="0" stop-color="#2a0a24" stop-opacity="0.420"/><stop offset=".45" stop-color="#2a0a24" stop-opacity="0.189"/><stop offset="1" stop-color="#2a0a24" stop-opacity="0"/></linearGradient><linearGradient id="shadowg8x0" gradientUnits="userSpaceOnUse" x1="32" y1="0" x2="48" y2="0"><stop offset="0" stop-color="#2a0a24" stop-opacity="0.420"/><stop offset=".45" stop-color="#2a0a24" stop-opacity="0.189"/><stop offset="1" stop-color="#2a0a24" stop-opacity="0"/></linearGradient></defs>
<rect id="shadow-topleft" x="0" y="58" width="16" height="16" fill="url(#shadowg1x0)"/>
<rect id="shadow-topright" x="32" y="58" width="16" height="16" fill="url(#shadowg2x0)"/>
<rect id="shadow-bottomleft" x="0" y="90" width="16" height="16" fill="url(#shadowg3x0)"/>
<rect id="shadow-bottomright" x="32" y="90" width="16" height="16" fill="url(#shadowg4x0)"/>
<rect id="shadow-top" x="16" y="58" width="16" height="16" fill="url(#shadowg5x0)"/>
<rect id="shadow-bottom" x="16" y="90" width="16" height="16" fill="url(#shadowg6x0)"/>
<rect id="shadow-left" x="0" y="74" width="16" height="16" fill="url(#shadowg7x0)"/>
<rect id="shadow-right" x="32" y="74" width="16" height="16" fill="url(#shadowg8x0)"/>
<rect id="shadow-center" x="16" y="74" width="16" height="16" fill="#000" opacity="0"/>
<rect id="shadow-hint-top-margin" x="56" y="58" width="4" height="10" fill="#000" opacity="0"/>
<rect id="shadow-hint-bottom-margin" x="62" y="58" width="4" height="10" fill="#000" opacity="0"/>
<rect id="shadow-hint-left-margin" x="56" y="88" width="10" height="4" fill="#000" opacity="0"/>
<rect id="shadow-hint-right-margin" x="56" y="94" width="10" height="4" fill="#000" opacity="0"/>
<rect id="shadow-hint-top-inset" x="70" y="58" width="4" height="10" fill="#000" opacity="0"/>
<rect id="shadow-hint-bottom-inset" x="76" y="58" width="4" height="10" fill="#000" opacity="0"/>
<rect id="shadow-hint-left-inset" x="70" y="88" width="10" height="4" fill="#000" opacity="0"/>
<rect id="shadow-hint-right-inset" x="70" y="94" width="10" height="4" fill="#000" opacity="0"/>
</svg>
