<?xml version="1.0" encoding="UTF-8"?>
<!-- ♡ uwu Plasma style. Generated by tools/plasma_theme.py; colours follow the colour scheme. -->
<svg xmlns="http://www.w3.org/2000/svg" xmlns:xlink="http://www.w3.org/1999/xlink" width="112" height="120" viewBox="0 0 112 120">
  <defs>
    <style type="text/css" id="current-color-scheme">
      .ColorScheme-Text { color:#ffeaf6; }
      .ColorScheme-Background { color:#241530; }
      .ColorScheme-Highlight { color:#ff8fc8; }
      .ColorScheme-ViewBackground { color:#1b0f22; }
      .ColorScheme-ButtonBackground { color:#3a2244; }
      .ColorScheme-ButtonHover { color:#c7a2ff; }
      .ColorScheme-ButtonFocus { color:#ff8fc8; }
      .ColorScheme-NeutralText { color:#ffd27a; }
      .ColorScheme-PositiveText { color:#8ff5cf; }
      .ColorScheme-NegativeText { color:#ff6b8f; }
      .ColorScheme-HighlightedText { color:#2a0c22; }
    </style>
  </defs>
<g id="topleft"><rect x="0" y="0" width="18" height="18" fill="#000" opacity="0"/><path class="ColorScheme-Background" d="M18,0 L16,0 A16,16 0 0 0 0,16 L0,18 L18,18 Z" fill="currentColor" opacity="0.96"/><path class="ColorScheme-Highlight" d="M18,0 L16,0 A16,16 0 0 0 0,16 L0,18 L1.5,18 L1.5,16 A14.5,14.5 0 0 1 16,1.5 L18,1.5 Z" fill="currentColor" opacity="0.5"/><path d="M18,1.9 L16,1.9 A14.1,14.1 0 0 0 1.9,16 L1.9,18 L2.9,18 L2.9,16 A13.1,13.1 0 0 1 16,2.9 L18,2.9 Z" fill="#fff" opacity="0.07"/></g>
<g id="topright"><rect x="34" y="0" width="18" height="18" fill="#000" opacity="0"/><path class="ColorScheme-Background" d="M34,0 L36,0 A16,16 0 0 1 52,16 L52,18 L34,18 Z" fill="currentColor" opacity="0.96"/><path class="ColorScheme-Highlight" d="M34,0 L36,0 A16,16 0 0 1 52,16 L52,18 L50.5,18 L50.5,16 A14.5,14.5 0 0 0 36,1.5 L34,1.5 Z" fill="currentColor" opacity="0.5"/><path d="M34,1.9 L36,1.9 A14.1,14.1 0 0 1 50.1,16 L50.1,18 L49.1,18 L49.1,16 A13.1,13.1 0 0 0 36,2.9 L34,2.9 Z" fill="#fff" opacity="0.07"/></g>
<g id="bottomleft"><rect x="0" y="34" width="18" height="18" fill="#000" opacity="0"/><path class="ColorScheme-Background" d="M18,52 L16,52 A16,16 0 0 1 0,36 L0,34 L18,34 Z" fill="currentColor" opacity="0.96"/><path class="ColorScheme-Highlight" d="M18,52 L16,52 A16,16 0 0 1 0,36 L0,34 L1.5,34 L1.5,36 A14.5,14.5 0 0 0 16,50.5 L18,50.5 Z" fill="currentColor" opacity="0.5"/></g>
<g id="bottomright"><rect x="34" y="34" width="18" height="18" fill="#000" opacity="0"/><path class="ColorScheme-Background" d="M34,52 L36,52 A16,16 0 0 0 52,36 L52,34 L34,34 Z" fill="currentColor" opacity="0.96"/><path class="ColorScheme-Highlight" d="M34,52 L36,52 A16,16 0 0 0 52,36 L52,34 L50.5,34 L50.5,36 A14.5,14.5 0 0 1 36,50.5 L34,50.5 Z" fill="currentColor" opacity="0.5"/></g>
<g id="top"><rect x="18" y="0" width="16" height="18" fill="#000" opacity="0"/><path class="ColorScheme-Background" d="M18,0 H34 V18 H18 Z" fill="currentColor" opacity="0.96"/><path class="ColorScheme-Highlight" d="M18,0 H34 V1.5 H18 Z" fill="currentColor" opacity="0.5"/><path d="M18,1.9 H34 V2.9 H18 Z" fill="#fff" opacity="0.07"/></g>
<g id="bottom"><rect x="18" y="34" width="16" height="18" fill="#000" opacity="0"/><path class="ColorScheme-Background" d="M18,34 H34 V52 H18 Z" fill="currentColor" opacity="0.96"/><path class="ColorScheme-Highlight" d="M18,50.5 H34 V52 H18 Z" fill="currentColor" opacity="0.5"/></g>
<g id="left"><rect x="0" y="18" width="18" height="16" fill="#000" opacity="0"/><path class="ColorScheme-Background" d="M0,18 H18 V34 H0 Z" fill="currentColor" opacity="0.96"/><path class="ColorScheme-Highlight" d="M0,18 H1.5 V34 H0 Z" fill="currentColor" opacity="0.5"/></g>
<g id="right"><rect x="34" y="18" width="18" height="16" fill="#000" opacity="0"/><path class="ColorScheme-Background" d="M34,18 H52 V34 H34 Z" fill="currentColor" opacity="0.96"/><path class="ColorScheme-Highlight" d="M50.5,18 H52 V34 H50.5 Z" fill="currentColor" opacity="0.5"/></g>
<g id="center"><rect x="18" y="18" width="16" height="16" fill="#000" opacity="0"/><path class="ColorScheme-Background" d="M18,18 H34 V34 H18 Z" fill="currentColor" opacity="0.96"/></g>
<rect id="hint-top-margin" x="60" y="0" width="4" height="8" fill="#000" opacity="0"/>
<rect id="hint-bottom-margin" x="66" y="0" width="4" height="8" fill="#000" opacity="0"/>
<rect id="hint-left-margin" x="60" y="30" width="8" height="4" fill="#000" opacity="0"/>
<rect id="hint-right-margin" x="60" y="36" width="8" height="4" fill="#000" opacity="0"/>
<rect id="hint-top-inset" x="60" y="50" width="4" height="0" fill="#000" opacity="0"/>
<rect id="hint-bottom-inset" x="66" y="50" width="4" height="0" fill="#000" opacity="0"/>
<rect id="hint-left-inset" x="60" y="80" width="0" height="4" fill="#000" opacity="0"/>
<rect id="hint-right-inset" x="60" y="86" width="0" height="4" fill="#000" opacity="0"/>
<defs><radialGradient id="shadowg1x0" gradientUnits="userSpaceOnUse" cx="16" cy="78" r="16"><stop offset="0" stop-color="#2a0a24" stop-opacity="0.357"/><stop offset=".45" stop-color="#2a0a24" stop-opacity="0.161"/><stop offset="1" stop-color="#2a0a24" stop-opacity="0"/></radialGradient><radialGradient id="shadowg2x0" gradientUnits="userSpaceOnUse" cx="32" cy="78" r="16"><stop offset="0" stop-color="#2a0a24" stop-opacity="0.357"/><stop offset=".45" stop-color="#2a0a24" stop-opacity="0.161"/><stop offset="1" stop-color="#2a0a24" stop-opacity="0"/></radialGradient><radialGradient id="shadowg3x0" gradientUnits="userSpaceOnUse" cx="16" cy="94" r="16"><stop offset="0" stop-color="#2a0a24" stop-opacity="0.473"/><stop offset=".45" stop-color="#2a0a24" stop-opacity="0.213"/><stop offset="1" stop-color="#2a0a24" stop-opacity="0"/></radialGradient><radialGradient id="shadowg4x0" gradientUnits="userSpaceOnUse" cx="32" cy="94" r="16"><stop offset="0" stop-color="#2a0a24" stop-opacity="0.473"/><stop offset=".45" stop-color="#2a0a24" stop-opacity="0.213"/><stop offset="1" stop-color="#2a0a24" stop-opacity="0"/></radialGradient><linearGradient id="shadowg5x0" gradientUnits="userSpaceOnUse" x1="0" y1="78" x2="0" y2="62"><stop offset="0" stop-color="#2a0a24" stop-opacity="0.294"/><stop offset=".45" stop-color="#2a0a24" stop-opacity="0.132"/><stop offset="1" stop-color="#2a0a24" stop-opacity="0"/></linearGradient><linearGradient id="shadowg6x0" gradientUnits="userSpaceOnUse" x1="0" y1="94" x2="0" y2="110"><stop offset="0" stop-color="#2a0a24" stop-opacity="0.525"/><stop offset=".45" stop-color="#2a0a24" stop-opacity="0.236"/><stop offset="1" stop-color="#2a0a24" stop-opacity="0"/></linearGradient><linearGradient id="shadowg7x0" gradientUnits="userSpaceOnUse" x1="16" y1="0" x2="0" y2="0"><stop offset="0" stop-color="#2a0a24" stop-opacity="0.420"/><stop offset=".45" stop-color="#2a0a24" stop-opacity="0.189"/><stop offset="1" stop-color="#2a0a24" stop-opacity="0"/></linearGradient><linearGradient id="shadowg8x0" gradientUnits="userSpaceOnUse" x1="32" y1="0" x2="48" y2="0"><stop offset="0" stop-color="#2a0a24" stop-opacity="0.420"/><stop offset=".45" stop-color="#2a0a24" stop-opacity="0.189"/><stop offset="1" stop-color="#2a0a24" stop-opacity="0"/></linearGradient></defs>
<rect id="shadow-topleft" x="0" y="62" width="16" height="16" fill="url(#shadowg1x0)"/>
<rect id="shadow-topright" x="32" y="62" width="16" height="16" fill="url(#shadowg2x0)"/>
<rect id="shadow-bottomleft" x="0" y="94" width="16" height="16" fill="url(#shadowg3x0)"/>
<rect id="shadow-bottomright" x="32" y="94" width="16" height="16" fill="url(#shadowg4x0)"/>
<rect id="shadow-top" x="16" y="62" width="16" height="16" fill="url(#shadowg5x0)"/>
<rect id="shadow-bottom" x="16" y="94" width="16" height="16" fill="url(#shadowg6x0)"/>
<rect id="shadow-left" x="0" y="78" width="16" height="16" fill="url(#shadowg7x0)"/>
<rect id="shadow-right" x="32" y="78" width="16" height="16" fill="url(#shadowg8x0)"/>
<rect id="shadow-center" x="16" y="78" width="16" height="16" fill="#000" opacity="0"/>
<rect id="shadow-hint-top-margin" x="56" y="62" width="4" height="10" fill="#000" opacity="0"/>
<rect id="shadow-hint-bottom-margin" x="62" y="62" width="4" height="10" fill="#000" opacity="0"/>
<rect id="shadow-hint-left-margin" x="56" y="92" width="10" height="4" fill="#000" opacity="0"/>
<rect id="shadow-hint-right-margin" x="56" y="98" width="10" height="4" fill="#000" opacity="0"/>
<rect id="shadow-hint-top-inset" x="70" y="62" width="4" height="10" fill="#000" opacity="0"/>
<rect id="shadow-hint-bottom-inset" x="76" y="62" width="4" height="10" fill="#000" opacity="0"/>
<rect id="shadow-hint-left-inset" x="70" y="92" width="10" height="4" fill="#000" opacity="0"/>
<rect id="shadow-hint-right-inset" x="70" y="98" width="10" height="4" fill="#000" opacity="0"/>
</svg>
